<?xml version="1.0" encoding="utf-8"?>
<!-- Generator: Adobe Illustrator 21.0.0, SVG Export Plug-In . SVG Version: 6.00 Build 0)  -->
<svg version="1.1" id="Layer_1" xmlns="http://www.w3.org/2000/svg" xmlns:xlink="http://www.w3.org/1999/xlink" x="0px" y="0px"
	 viewBox="0 0 500 512" style="enable-background:new 0 0 512 512;" xml:space="preserve">
<style type="text/css">
	.st0{fill:#F44336;}
	.st1{fill:#FFFFFF;}
</style>
<g>
	<path class="st0" d="M222.9,498.1l-209-209c-18.6-18.6-18.6-47.6,0-66.2l209-209c18.6-18.6,47.6-18.6,66.2,0l209,209
		c18.6,18.6,18.6,47.6,0,66.2l-209,209C270.5,516.6,240.3,516.6,222.9,498.1z"/>
	<path class="st1" d="M227.6,357.6c0-3.5,1.2-7,2.3-10.5c1.2-3.5,3.5-5.8,5.8-8.1c2.3-2.3,5.8-4.6,9.3-5.8c3.5-1.2,7-2.3,11.6-2.3
		c4.6,0,8.1,1.2,11.6,2.3c3.5,1.2,7,3.5,9.3,5.8c2.3,2.3,4.6,4.6,5.8,8.1c1.2,3.5,2.3,7,2.3,10.5c0,3.5-1.2,7-2.3,10.4
		c-1.2,3.5-3.5,5.8-5.8,8.1c-2.3,2.3-5.8,4.6-9.3,5.8c-3.5,1.2-7,2.3-11.6,2.3c-4.6,0-8.1-1.2-11.6-2.3c-3.5-1.2-5.8-3.5-9.3-5.8
		c-2.3-2.3-4.6-4.6-5.8-8.1C228.7,364.5,227.6,362.2,227.6,357.6z M276.3,304.2h-41.8l-5.8-175.3h53.4L276.3,304.2z"/>
</g>
</svg>
